<?xml version="1.0" encoding="UTF-8" standalone="no"?>
<!-- Created with Inkscape (http://www.inkscape.org/) -->

<svg
   inkscape:export-ydpi="96"
   inkscape:export-xdpi="96"
   inkscape:export-filename="Template.png"
   width="206.76575"
   height="206.76575"
   id="svg11300"
   sodipodi:version="0.32"
   inkscape:version="1.3.2 (091e20ef0f, 2023-11-25)"
   sodipodi:docname="com.jwestall.Weather.Source.svg"
   inkscape:output_extension="org.inkscape.output.svg.inkscape"
   version="1.0"
   style="display:inline;enable-background:new"
   viewBox="0 0 206.76575 206.76575"
   xml:space="preserve"
   xmlns:inkscape="http://www.inkscape.org/namespaces/inkscape"
   xmlns:sodipodi="http://sodipodi.sourceforge.net/DTD/sodipodi-0.dtd"
   xmlns:xlink="http://www.w3.org/1999/xlink"
   xmlns="http://www.w3.org/2000/svg"
   xmlns:svg="http://www.w3.org/2000/svg"
   xmlns:rdf="http://www.w3.org/1999/02/22-rdf-syntax-ns#"
   xmlns:cc="http://creativecommons.org/ns#"
   xmlns:dc="http://purl.org/dc/elements/1.1/"><title
     id="title4162">Adwaita Icon Template</title><defs
     id="defs3"><linearGradient
       inkscape:collect="always"
       xlink:href="#paint3_linear-2-6-5"
       id="linearGradient1383"
       gradientUnits="userSpaceOnUse"
       gradientTransform="matrix(0,6,-12,0,-93.32217,504.5)"
       x2="1" /><linearGradient
       id="paint3_linear-2-6-5"
       x2="1"
       gradientUnits="userSpaceOnUse"
       gradientTransform="matrix(0,6,-12,0,-64,209.99687)"><stop
         stop-color="#C01C27"
         id="stop91-0-7-4" /><stop
         offset="1"
         stop-color="#E01B24"
         id="stop93-2-5-7" /></linearGradient><radialGradient
       inkscape:collect="always"
       xlink:href="#linearGradient6058"
       id="radialGradient1099"
       gradientUnits="userSpaceOnUse"
       gradientTransform="matrix(1.757743,-9.5621778e-8,3.7652438e-8,1.9495846,-82.64437,131.95505)"
       cx="-24.238829"
       cy="225.59558"
       fx="-24.238829"
       fy="225.59558"
       r="24" /><linearGradient
       inkscape:collect="always"
       id="linearGradient6058"><stop
         style="stop-color:#ffffff;stop-opacity:1"
         offset="0"
         id="stop6054" /><stop
         style="stop-color:#f6f5f4;stop-opacity:1"
         offset="1"
         id="stop6056" /></linearGradient><linearGradient
       inkscape:collect="always"
       xlink:href="#linearGradient1115"
       id="linearGradient1097"
       gradientUnits="userSpaceOnUse"
       gradientTransform="matrix(1.0015061,0,0,0.99993452,-117.15963,352.51519)"
       x1="43.843597"
       y1="234.00014"
       x2="-60.000004"
       y2="234.00014" /><linearGradient
       id="linearGradient1115"
       inkscape:collect="always"><stop
         id="stop1103"
         offset="0"
         style="stop-color:#d5d3cf;stop-opacity:1" /><stop
         style="stop-color:#e3e2df;stop-opacity:1"
         offset="0.03846154"
         id="stop1105" /><stop
         style="stop-color:#c0bfbc;stop-opacity:1"
         offset="0.07692308"
         id="stop1107" /><stop
         style="stop-color:#c0bfbc;stop-opacity:1"
         offset="0.92307693"
         id="stop1109" /><stop
         style="stop-color:#e3e2df;stop-opacity:1"
         offset="0.96153843"
         id="stop1111" /><stop
         id="stop1113"
         offset="1"
         style="stop-color:#d5d3cf;stop-opacity:1" /></linearGradient></defs><sodipodi:namedview
     stroke="#ef2929"
     fill="#f57900"
     id="base"
     pagecolor="#ffffff"
     bordercolor="#666666"
     borderopacity="0.25490196"
     inkscape:pageopacity="0.0"
     inkscape:pageshadow="2"
     inkscape:zoom="8"
     inkscape:cx="74.1875"
     inkscape:cy="86.1875"
     inkscape:current-layer="g1844"
     showgrid="false"
     inkscape:grid-bbox="true"
     inkscape:document-units="px"
     inkscape:showpageshadow="false"
     inkscape:window-width="2086"
     inkscape:window-height="1255"
     inkscape:window-x="26"
     inkscape:window-y="23"
     width="400px"
     height="300px"
     inkscape:snap-nodes="true"
     inkscape:snap-bbox="true"
     objecttolerance="7"
     gridtolerance="12"
     guidetolerance="13"
     inkscape:window-maximized="0"
     inkscape:pagecheckerboard="false"
     showguides="false"
     inkscape:guide-bbox="true"
     inkscape:locked="false"
     inkscape:measure-start="0,0"
     inkscape:measure-end="0,0"
     inkscape:object-nodes="true"
     inkscape:bbox-nodes="true"
     inkscape:snap-global="true"
     inkscape:object-paths="true"
     inkscape:snap-intersection-paths="true"
     inkscape:snap-bbox-edge-midpoints="true"
     inkscape:snap-bbox-midpoints="true"
     showborder="true"
     inkscape:snap-center="true"
     inkscape:snap-object-midpoints="true"
     inkscape:snap-midpoints="true"
     inkscape:snap-smooth-nodes="true"
     inkscape:snap-text-baseline="true"
     borderlayer="true"
     inkscape:deskcolor="#d1d1d1"><inkscape:grid
       type="xygrid"
       id="grid5883"
       spacingx="2"
       spacingy="2"
       enabled="true"
       visible="false"
       empspacing="4"
       originx="193.87436"
       originy="249.63756"
       units="px" /><sodipodi:guide
       position="257.87436,-225.63756"
       orientation="0,1"
       id="guide1073"
       inkscape:locked="false"
       inkscape:label=""
       inkscape:color="rgb(0,0,255)" /><sodipodi:guide
       position="205.87436,-169.63756"
       orientation="1,0"
       id="guide1075"
       inkscape:locked="false"
       inkscape:label=""
       inkscape:color="rgb(0,0,255)" /><sodipodi:guide
       position="257.87436,-129.63756"
       orientation="0,1"
       id="guide1099"
       inkscape:locked="false"
       inkscape:label=""
       inkscape:color="rgb(0,0,255)" /><sodipodi:guide
       position="257.87436,-105.63756"
       orientation="0,1"
       id="guide993"
       inkscape:locked="false"
       inkscape:label=""
       inkscape:color="rgb(0,0,255)" /><sodipodi:guide
       position="297.87436,-169.63756"
       orientation="1,0"
       id="guide995"
       inkscape:locked="false"
       inkscape:label=""
       inkscape:color="rgb(0,0,255)" /><sodipodi:guide
       position="193.87436,-169.63756"
       orientation="1,0"
       id="guide867"
       inkscape:locked="false"
       inkscape:label=""
       inkscape:color="rgb(0,0,255)" /><sodipodi:guide
       position="313.87436,-169.63756"
       orientation="1,0"
       id="guide869"
       inkscape:locked="false"
       inkscape:label=""
       inkscape:color="rgb(0,0,255)" /><sodipodi:guide
       position="257.87436,-117.63756"
       orientation="0,1"
       id="guide871"
       inkscape:locked="false"
       inkscape:label=""
       inkscape:color="rgb(0,0,255)" /><inkscape:grid
       type="xygrid"
       id="grid873"
       spacingx="1"
       spacingy="1"
       empspacing="8"
       color="#000000"
       opacity="0.49019608"
       empcolor="#000000"
       empopacity="0.08627451"
       dotted="true"
       originx="193.87436"
       originy="249.63756"
       units="px"
       visible="false" /><sodipodi:guide
       position="217.87436,-169.63756"
       orientation="1,0"
       id="guide877"
       inkscape:locked="false"
       inkscape:label=""
       inkscape:color="rgb(0,0,255)" /><sodipodi:guide
       position="309.87436,-169.63756"
       orientation="1,0"
       id="guide879"
       inkscape:locked="false"
       inkscape:label=""
       inkscape:color="rgb(0,0,255)" /><sodipodi:guide
       position="257.87436,-113.63756"
       orientation="0,1"
       id="guide881"
       inkscape:locked="false"
       inkscape:label=""
       inkscape:color="rgb(0,0,255)" /><sodipodi:guide
       position="257.87436,-221.63756"
       orientation="0,1"
       id="guide883"
       inkscape:locked="false"
       inkscape:label=""
       inkscape:color="rgb(0,0,255)" /><sodipodi:guide
       position="201.87436,-169.63756"
       orientation="1,0"
       id="guide885"
       inkscape:locked="false"
       inkscape:label=""
       inkscape:color="rgb(0,0,255)" /><sodipodi:guide
       position="321.87436,-169.63756"
       orientation="1,0"
       id="guide887"
       inkscape:locked="false"
       inkscape:label=""
       inkscape:color="rgb(0,0,255)" /><sodipodi:guide
       position="257.87436,-233.63756"
       orientation="0,1"
       id="guide897"
       inkscape:locked="false"
       inkscape:label=""
       inkscape:color="rgb(0,0,255)" /><sodipodi:guide
       position="257.87436,-209.63756"
       orientation="0,1"
       id="guide899"
       inkscape:locked="false"
       inkscape:label=""
       inkscape:color="rgb(0,0,255)" /><sodipodi:guide
       position="449.87436,22.362442"
       orientation="-0.70710678,0.70710678"
       id="guide950"
       inkscape:locked="false"
       inkscape:label=""
       inkscape:color="rgb(0,0,255)" /><sodipodi:guide
       position="257.87436,-169.63756"
       orientation="0.70710678,0.70710678"
       id="guide952"
       inkscape:locked="false"
       inkscape:label=""
       inkscape:color="rgb(0,0,255)" /></sodipodi:namedview><metadata
     id="metadata4"><rdf:RDF><cc:Work
         rdf:about=""><dc:title>Adwaita Icon Template</dc:title></cc:Work></rdf:RDF></metadata><g
     id="layer1"
     inkscape:label="App Icon"
     inkscape:groupmode="layer"
     style="display:inline"
     transform="translate(193.87436,85.637558)"><g
       inkscape:groupmode="layer"
       id="layer9"
       inkscape:label="icons"
       style="display:inline"><g
         id="g1844"
         transform="translate(-20.749999,15.499996)"><rect
           y="536.5"
           x="-177.25"
           style="display:inline;fill:url(#linearGradient1097);fill-opacity:1;stroke-width:1;enable-background:new"
           width="104"
           height="48"
           rx="8"
           id="rect1091"
           ry="8" /><path
           sodipodi:nodetypes="ssssssssccccs"
           inkscape:connector-curvature="0"
           id="rect1093"
           d="m -169.25,478.5 c -4.432,0 -8,3.568 -8,8 v 84 c 0,4.432 3.568,8 8,8 h 88 c 4.432,0 8,-3.568 8,-8 v -84 c 0,-4.432 -3.568,-8 -8,-8 h -42 v 2 h -4 v -2 z"
           style="display:inline;fill:url(#radialGradient1099);fill-opacity:1;stroke-width:1.68415;enable-background:new" /><rect
           ry="13.072174"
           id="rect1371"
           rx="13.072174"
           height="28"
           width="28"
           style="display:inline;fill:#f5c211;enable-background:new"
           x="-113.24999"
           y="488.5" /><path
           sodipodi:nodetypes="ccssssc"
           id="path1373"
           d="m -105.32217,505.50313 h 12 V 506.5 c 0,2.20914 -1.7909,4 -4,4 h -4 c -2.20914,0 -4,-1.79086 -4,-4 z"
           style="display:inline;fill:url(#linearGradient1383);enable-background:new"
           inkscape:connector-curvature="0" /><rect
           id="rect1375"
           height="2"
           width="12"
           style="display:inline;fill:#ffffff;enable-background:new"
           x="-105.32217"
           y="504.5" /><path
           sodipodi:nodetypes="scsccs"
           id="path1377"
           d="m -105.32217,499.5 c 0,-0.55229 0.44772,-1 1,-1 0.55228,0 1,0.44771 1,1 v 3 h -2 z"
           style="display:inline;fill:#b45600;enable-background:new"
           inkscape:connector-curvature="0" /><path
           sodipodi:nodetypes="scsccs"
           id="path1379"
           d="m -95.32217,499.5 c 0,-0.55229 0.44772,-1 1,-1 0.55228,0 1,0.44771 1,1 v 3 h -2 z"
           style="display:inline;fill:#b45600;enable-background:new"
           inkscape:connector-curvature="0" /><g
           transform="translate(170.75,294.5)"
           style="display:inline;enable-background:new"
           id="g1387"><path
             style="color:#000000;font-style:normal;font-variant:normal;font-weight:normal;font-stretch:normal;font-size:medium;line-height:normal;font-family:sans-serif;font-variant-ligatures:normal;font-variant-position:normal;font-variant-caps:normal;font-variant-numeric:normal;font-variant-alternates:normal;font-feature-settings:normal;text-indent:0;text-align:start;text-decoration:none;text-decoration-line:none;text-decoration-style:solid;text-decoration-color:#000000;letter-spacing:normal;word-spacing:normal;text-transform:none;writing-mode:lr-tb;direction:ltr;text-orientation:mixed;dominant-baseline:auto;baseline-shift:baseline;text-anchor:start;white-space:normal;shape-padding:0;clip-rule:nonzero;display:inline;overflow:visible;visibility:visible;opacity:1;isolation:auto;mix-blend-mode:normal;color-interpolation:sRGB;color-interpolation-filters:linearRGB;solid-color:#000000;solid-opacity:1;vector-effect:none;fill:#62a0ea;fill-opacity:1;fill-rule:nonzero;stroke:none;stroke-width:4;stroke-linecap:butt;stroke-linejoin:round;stroke-miterlimit:4;stroke-dasharray:none;stroke-dashoffset:0;stroke-opacity:1;color-rendering:auto;image-rendering:auto;shape-rendering:auto;text-rendering:auto;enable-background:new"
             d="m 26,20 v 17 c 0,0 0.123719,2.819005 -2.894531,4.328125 l 1.789062,3.576172 C 29.876281,42.413417 30,37 30,37 v -1 h 12 v 2 c 0,0 -0.0278,1.167429 -0.470703,2.230469 C 41.086357,41.293509 40.7,42 39,42 h -1 l -2,4 h 2 1 c 3.3,0 5.413643,-2.293509 6.220703,-4.230469 C 46.027773,39.832571 46,38 46,38 V 20 Z m 4,4 h 12 v 2 H 30 Z m 0,6 h 12 v 2 H 30 Z"
             transform="translate(-358,176)"
             id="path1385"
             inkscape:connector-curvature="0" /></g><g
           transform="translate(196.75,294.5)"
           style="display:inline;enable-background:new"
           id="g1393"><path
             style="color:#000000;font-style:normal;font-variant:normal;font-weight:normal;font-stretch:normal;font-size:medium;line-height:normal;font-family:sans-serif;font-variant-ligatures:normal;font-variant-position:normal;font-variant-caps:normal;font-variant-numeric:normal;font-variant-alternates:normal;font-feature-settings:normal;text-indent:0;text-align:start;text-decoration:none;text-decoration-line:none;text-decoration-style:solid;text-decoration-color:#000000;letter-spacing:normal;word-spacing:normal;text-transform:none;writing-mode:lr-tb;direction:ltr;text-orientation:mixed;dominant-baseline:auto;baseline-shift:baseline;text-anchor:start;white-space:normal;shape-padding:0;clip-rule:nonzero;display:inline;overflow:visible;visibility:visible;opacity:1;isolation:auto;mix-blend-mode:normal;color-interpolation:sRGB;color-interpolation-filters:linearRGB;solid-color:#000000;solid-opacity:1;vector-effect:none;fill:#26a269;fill-opacity:1;fill-rule:nonzero;stroke:none;stroke-width:4;stroke-linecap:butt;stroke-linejoin:miter;stroke-miterlimit:4;stroke-dasharray:none;stroke-dashoffset:0;stroke-opacity:1;color-rendering:auto;image-rendering:auto;shape-rendering:auto;text-rendering:auto;enable-background:new"
             d="m 60,78 a 2,2 0 0 0 -2,2 2,2 0 0 0 2,2 2,2 0 0 0 2,-2 2,2 0 0 0 -2,-2 z m -4,6 a 2,2 0 0 0 -2,2 2,2 0 0 0 2,2 2,2 0 0 0 2,-2 2,2 0 0 0 -2,-2 z m 8,0 a 2,2 0 0 0 -2,2 2,2 0 0 0 2,2 2,2 0 0 0 2,-2 2,2 0 0 0 -2,-2 z m 6,6 -4,2 v 4 h -4 v -2 -2 l -4,2 v 2 L 50,95.998 50.07227,100 c -0.001,1.12729 -0.87241,1.99805 -2,1.99805 -1.12827,0 -2,-0.87174 -2,-2.000003 h -4 c 0,3.290023 2.70998,6.000003 6,6.000003 3.29001,0 6,-2.70998 6,-6.000003 L 70,100 Z m -15.927734,3.996094 -4,2 h 4 z"
             transform="translate(-352,168)"
             id="path1389"
             inkscape:connector-curvature="0" /><path
             id="path1391"
             d="m -309.92783,267.99687 4,-2 v 2 z"
             style="display:inline;fill:#26a269;enable-background:new"
             inkscape:connector-curvature="0" /></g><path
           sodipodi:nodetypes="cc"
           style="display:inline;fill:none;fill-rule:evenodd;stroke:#deddda;stroke-width:4;stroke-linecap:butt;stroke-linejoin:miter;stroke-miterlimit:4;stroke-dasharray:none;stroke-opacity:1;enable-background:new"
           d="m -177.25,528.5 h 104"
           id="path1397"
           inkscape:connector-curvature="0" /><path
           inkscape:connector-curvature="0"
           id="path1458"
           d="m -177.25,527.5 h 104"
           style="display:inline;fill:none;fill-rule:evenodd;stroke:#c0bfbc;stroke-width:2;stroke-linecap:butt;stroke-linejoin:miter;stroke-miterlimit:4;stroke-dasharray:none;stroke-opacity:1;enable-background:new"
           sodipodi:nodetypes="cc" /><path
           sodipodi:nodetypes="cc"
           inkscape:connector-curvature="0"
           id="path1395"
           d="m -125.25,480.5 v 100"
           style="display:inline;fill:none;fill-rule:evenodd;stroke:#deddda;stroke-width:4;stroke-linecap:butt;stroke-linejoin:miter;stroke-miterlimit:4;stroke-dasharray:none;stroke-opacity:1;enable-background:new" /><path
           d="m -153.08925,552.65236 q 0,-1.12461 -0.36927,-1.94707 -0.36927,-0.83925 -0.97353,-1.40995 -0.23499,-0.23498 -0.50355,-0.4364 -0.40285,-0.30214 -0.57069,-0.46998 -0.67141,-0.63783 -1.00711,-1.47709 -0.3357,-0.83925 -0.3357,-1.77921 0,-0.97353 0.35249,-1.796 0.35248,-0.82246 0.99032,-1.46029 0.53712,-0.53712 1.51065,-1.0071 0.77211,-0.36927 1.72885,-0.36927 0.95675,0 1.76243,0.36927 0.90639,0.40284 1.51065,1.0071 0.63783,0.63783 0.99032,1.46029 0.35249,0.82247 0.35249,1.796 0,1.02389 -0.35249,1.82957 -0.35249,0.7889 -0.99032,1.42673 -0.16785,0.16784 -0.60426,0.46998 -0.13428,0.10067 -0.46998,0.4364 -0.68818,0.67141 -1.02388,1.49388 -0.31892,0.80569 -0.31892,1.86314 1.14138,0 1.98063,-0.38607 0.85604,-0.40283 1.40994,-0.95675 0.21821,-0.21819 0.41963,-0.48675 0.30213,-0.41963 0.46998,-0.58749 0.65462,-0.6546 1.49387,-0.9903 0.83925,-0.35249 1.77921,-0.35249 0.97353,0 1.796,0.35249 0.82246,0.35248 1.4603,0.9903 0.60426,0.60427 1.0071,1.51067 0.35248,0.78889 0.35248,1.74564 0,0.95675 -0.35248,1.74564 -0.40284,0.90638 -1.0071,1.51065 -0.63784,0.63783 -1.4603,0.99031 -0.82247,0.35249 -1.796,0.35249 -0.93996,0 -1.77921,-0.33572 -0.83925,-0.35246 -1.49387,-1.00708 -0.16785,-0.16785 -0.46998,-0.58748 -0.20142,-0.26856 -0.41963,-0.48677 -0.68818,-0.65461 -1.51065,-0.99031 -0.80568,-0.35248 -1.87992,-0.35248 0,1.14136 0.38606,1.99742 0.40284,0.83924 0.95674,1.39314 0.21821,0.21822 0.48677,0.41964 0.41962,0.30213 0.58747,0.46998 0.65462,0.65462 0.99032,1.49386 0.35249,0.83925 0.35249,1.77922 0,0.97352 -0.35249,1.79599 -0.35249,0.82247 -0.99032,1.46029 -0.60426,0.60428 -1.51065,1.00711 -0.78889,0.35249 -1.74564,0.35249 -0.95675,0 -1.74564,-0.35249 -0.90639,-0.40283 -1.51065,-1.00711 -0.63784,-0.63782 -0.99032,-1.46029 -0.35249,-0.82247 -0.35249,-1.79599 0,-0.93997 0.3357,-1.77922 0.35249,-0.83924 1.00711,-1.49386 0.16784,-0.16785 0.58747,-0.46998 0.26856,-0.20142 0.48677,-0.41964 0.65461,-0.68818 0.99031,-1.49385 0.35249,-0.82248 0.35249,-1.89671 -1.05746,0 -1.89671,0.35248 -0.82247,0.3357 -1.47708,0.99031 -0.23499,0.23499 -0.43641,0.50355 -0.30213,0.40285 -0.46998,0.5707 -0.63783,0.6714 -1.47708,1.00708 -0.83926,0.33572 -1.77922,0.33572 -0.97353,0 -1.79599,-0.35249 -0.82247,-0.35248 -1.4603,-0.99031 -0.55391,-0.53712 -1.0071,-1.51065 -0.36927,-0.77211 -0.36927,-1.72886 0,-0.95675 0.36927,-1.76242 0.40284,-0.9064 1.0071,-1.51067 0.63783,-0.63782 1.4603,-0.9903 0.82246,-0.35249 1.79599,-0.35249 1.02389,0 1.81279,0.35249 0.80568,0.35248 1.44351,0.9903 0.16785,0.16786 0.46998,0.60427 0.10071,0.13428 0.43641,0.46997 0.6714,0.6714 1.49387,1.00711 0.82246,0.33571 1.87992,0.33571 z"
           style="font-style:normal;font-weight:normal;font-size:medium;line-height:1000%;font-family:sans-serif;letter-spacing:0px;word-spacing:0px;display:inline;fill:#a347ba;fill-opacity:1;stroke:none;stroke-width:0.859393px;stroke-linecap:butt;stroke-linejoin:miter;stroke-opacity:1;enable-background:new"
           id="path1476"
           inkscape:connector-curvature="0" /><g
           id="g1"
           transform="translate(-0.0133347,0.00204541)"
           inkscape:export-filename="hicolor/scalable/apps/com.jwestall.Weather.svg"
           inkscape:export-xdpi="219.62"
           inkscape:export-ydpi="219.62"><circle
             style="fill:#ffe232;fill-opacity:1;stroke:none;stroke-width:1.55717;-inkscape-stroke:none"
             id="path1"
             cx="99.379051"
             cy="198.98143"
             r="33.37138" /><ellipse
             style="fill:#fdec74;fill-opacity:1;stroke:none;stroke-width:1.17978;-inkscape-stroke:none"
             id="path2"
             cx="166.54367"
             cy="128.20206"
             rx="8.3465748"
             ry="5.6741233"
             transform="rotate(21.676306)" /><path
             id="path1-3"
             d="m 132.75043,200.98144 c 0,18.4305 -14.94087,33.37137 -33.37138,33.37137 -18.4305,0 -33.371376,-14.94087 -33.371376,-33.37137 0,-18.43051 3.114367,2.05395 21.517924,1.0577 19.538682,-1.0577 45.224832,-19.48821 45.224832,-1.0577 z"
             style="display:inline;fill:#ffbd2b;fill-opacity:1;stroke:none;stroke-width:1.55717;-inkscape-stroke:none;enable-background:new"
             sodipodi:nodetypes="sssss" /><ellipse
             style="fill:#d7d9d3;fill-opacity:1;stroke:none;stroke-width:1.45797;-inkscape-stroke:none"
             id="path3"
             cx="110.59757"
             cy="235.66963"
             rx="29.219782"
             ry="28.96657" /><circle
             style="fill:#f1f1f1;fill-opacity:1;stroke:none;stroke-width:1.18545;-inkscape-stroke:none"
             id="path5"
             cx="68.409966"
             cy="232.00487"
             r="40.49358" /><path
             id="path5-6"
             style="display:inline;fill:#e0e0e0;stroke:none;stroke-width:1.18545;enable-background:new"
             d="m 108.90354,232.00487 c 0,22.36398 -18.12959,40.49358 -40.493574,40.49358 -22.363986,0 -40.49358,-18.1296 -40.49358,-40.49358 0,-11.99835 0.431805,5.89779 22.442693,0 9.634051,-2.58144 27.605653,-2.47991 37.572265,0 20.690056,5.14812 20.972196,-10.22287 20.972196,0 z"
             sodipodi:nodetypes="ssssss" /><rect
             style="fill:#e0e0e0;fill-opacity:1;stroke:none;stroke-width:1.17002;-inkscape-stroke:none"
             id="rect6"
             width="80.2351"
             height="36.828812"
             x="48.019886"
             y="235.66963"
             rx="19.585676"
             ry="18.414406" /></g><g
           id="g3"><rect
             style="fill:none;stroke:none;stroke-width:1.07256;-inkscape-stroke:none"
             id="rect1"
             width="206.76575"
             height="206.76575"
             x="-173.12436"
             y="-101.13755"
             rx="0"
             ry="0" /><g
             id="g2"
             transform="matrix(1.8477565,0,0,1.8477565,-224.70704,-403.01079)"
             inkscape:export-filename="hicolor/scalable/apps/com.jwestall.Weather.svg"
             inkscape:export-xdpi="222.304"
             inkscape:export-ydpi="222.304"
             style="display:inline;enable-background:new"><circle
               style="fill:#ffe232;fill-opacity:1;stroke:none;stroke-width:1.55717;-inkscape-stroke:none"
               id="path1-6"
               cx="99.379051"
               cy="198.98143"
               r="33.37138" /><ellipse
               style="fill:#fdec74;fill-opacity:1;stroke:none;stroke-width:1.17978;-inkscape-stroke:none"
               id="path2-7"
               cx="166.54367"
               cy="128.20206"
               rx="8.3465748"
               ry="5.6741233"
               transform="rotate(21.676306)" /><path
               id="path1-3-5"
               d="m 132.75043,200.98144 c 0,18.4305 -14.94087,33.37137 -33.37138,33.37137 -18.4305,0 -33.371376,-14.94087 -33.371376,-33.37137 0,-18.43051 3.114367,2.05395 21.517924,1.0577 19.538682,-1.0577 45.224832,-19.48821 45.224832,-1.0577 z"
               style="display:inline;fill:#ffbd2b;fill-opacity:1;stroke:none;stroke-width:1.55717;-inkscape-stroke:none;enable-background:new"
               sodipodi:nodetypes="sssss" /><ellipse
               style="fill:#d7d9d3;fill-opacity:1;stroke:none;stroke-width:1.45797;-inkscape-stroke:none"
               id="path3-3"
               cx="110.59757"
               cy="235.66963"
               rx="29.219782"
               ry="28.96657" /><circle
               style="fill:#f1f1f1;fill-opacity:1;stroke:none;stroke-width:1.18545;-inkscape-stroke:none"
               id="path5-5"
               cx="68.409966"
               cy="232.00487"
               r="40.49358" /><path
               id="path5-6-6"
               style="display:inline;fill:#e0e0e0;stroke:none;stroke-width:1.18545;enable-background:new"
               d="m 108.90354,232.00487 c 0,22.36398 -18.12959,40.49358 -40.493574,40.49358 -22.363986,0 -40.49358,-18.1296 -40.49358,-40.49358 0,-11.99835 0.431805,5.89779 22.442693,0 9.634051,-2.58144 27.605653,-2.47991 37.572265,0 20.690056,5.14812 20.972196,-10.22287 20.972196,0 z"
               sodipodi:nodetypes="ssssss" /><rect
               style="fill:#e0e0e0;fill-opacity:1;stroke:none;stroke-width:1.17002;-inkscape-stroke:none"
               id="rect6-2"
               width="80.2351"
               height="36.828812"
               x="48.019886"
               y="235.66963"
               rx="19.585676"
               ry="18.414406" /></g></g><g
           style="fill:#000000"
           id="g7"
           transform="matrix(0.03312011,0,0,0.03312011,180.75002,156.5)"><path
             d="m 477.593,228.263 -54.244,-54.236 c -3.521,-3.52 -5.499,-8.299 -5.499,-13.273 V 84.021 c 0,-10.373 -8.409,-18.781 -18.781,-18.781 h -76.731 c -4.974,0 -9.754,-1.978 -13.274,-5.499 L 254.827,5.497 c -7.338,-7.329 -19.227,-7.329 -26.565,0 l -54.236,54.244 c -3.52,3.521 -8.3,5.499 -13.273,5.499 H 84.021 c -10.373,0 -18.781,8.408 -18.781,18.781 v 76.732 c 0,4.974 -1.978,9.754 -5.499,13.273 L 5.496,228.263 c -7.329,7.338 -7.329,19.226 0,26.564 l 54.245,54.236 c 3.521,3.519 5.499,8.299 5.499,13.273 v 76.732 c 0,10.372 8.409,18.781 18.781,18.781 h 76.732 c 4.974,0 9.754,1.979 13.273,5.5 l 54.236,54.244 c 7.338,7.329 19.227,7.329 26.565,0 l 54.236,-54.244 c 3.52,-3.521 8.3,-5.5 13.274,-5.5 h 76.731 c 10.373,0 18.781,-8.409 18.781,-18.781 v -76.732 c 0,-4.974 1.978,-9.754 5.499,-13.273 l 54.244,-54.236 c 7.33,-7.338 7.33,-19.226 0.001,-26.564 z m -236.047,133.09 c -66.173,0 -119.809,-53.635 -119.809,-119.808 0,-66.173 53.636,-119.809 119.809,-119.809 66.172,0 119.808,53.635 119.808,119.809 -10e-4,66.173 -53.636,119.808 -119.808,119.808 z"
             id="path1-9" /></g></g></g></g></svg>
